<svg width="154" height="27" viewBox="0 0 154 27" fill="none" xmlns="http://www.w3.org/2000/svg">
<path d="M16.704 8.01594H16.608L14.976 11.2799L10.624 19.1839L6.368 11.3119L4.672 7.79194H4.576V22.6719H0V0.335938H5.152L10.624 10.7999H10.688L16.096 0.335938H21.28V22.6719H16.704V8.01594Z" fill="white"/>
<path d="M32.7788 23.0559C31.5414 23.0559 30.4321 22.8533 29.4508 22.4479C28.4907 22.0426 27.6694 21.4559 26.9867 20.6879C26.3254 19.9199 25.8134 18.9919 25.4508 17.9039C25.0881 16.8159 24.9067 15.5999 24.9067 14.2559C24.9067 12.9119 25.0881 11.6959 25.4508 10.6079C25.8134 9.51994 26.3254 8.6026 26.9867 7.85594C27.6694 7.08794 28.4907 6.50127 29.4508 6.09594C30.4321 5.6906 31.5414 5.48794 32.7788 5.48794C34.0161 5.48794 35.1147 5.6906 36.0747 6.09594C37.0561 6.50127 37.8774 7.08794 38.5387 7.85594C39.2214 8.6026 39.7441 9.51994 40.1068 10.6079C40.4694 11.6959 40.6507 12.9119 40.6507 14.2559C40.6507 15.5999 40.4694 16.8159 40.1068 17.9039C39.7441 18.9919 39.2214 19.9199 38.5387 20.6879C37.8774 21.4559 37.0561 22.0426 36.0747 22.4479C35.1147 22.8533 34.0161 23.0559 32.7788 23.0559ZM32.7788 19.3119C33.7174 19.3119 34.4427 19.0239 34.9548 18.4479C35.4668 17.8719 35.7228 17.0506 35.7228 15.9839V12.5599C35.7228 11.4933 35.4668 10.6719 34.9548 10.0959C34.4427 9.51994 33.7174 9.23194 32.7788 9.23194C31.8401 9.23194 31.1147 9.51994 30.6028 10.0959C30.0908 10.6719 29.8348 11.4933 29.8348 12.5599V15.9839C29.8348 17.0506 30.0908 17.8719 30.6028 18.4479C31.1147 19.0239 31.8401 19.3119 32.7788 19.3119Z" fill="white"/>
<path d="M49.7257 22.6719C48.0831 22.6719 46.8351 22.2559 45.9818 21.4239C45.1497 20.5919 44.7337 19.3759 44.7337 17.7759V9.55194H42.3657V5.87194H43.5498C44.1898 5.87194 44.6271 5.7226 44.8618 5.42394C45.0964 5.10394 45.2137 4.65594 45.2137 4.07994V1.32794H49.4697V5.87194H52.7977V9.55194H49.4697V18.9919H52.5418V22.6719H49.7257Z" fill="white"/>
<path d="M62.7788 23.0559C61.5414 23.0559 60.4321 22.8533 59.4507 22.4479C58.4907 22.0426 57.6694 21.4559 56.9868 20.6879C56.3254 19.9199 55.8134 18.9919 55.4507 17.9039C55.0881 16.8159 54.9067 15.5999 54.9067 14.2559C54.9067 12.9119 55.0881 11.6959 55.4507 10.6079C55.8134 9.51994 56.3254 8.6026 56.9868 7.85594C57.6694 7.08794 58.4907 6.50127 59.4507 6.09594C60.4321 5.6906 61.5414 5.48794 62.7788 5.48794C64.0161 5.48794 65.1148 5.6906 66.0748 6.09594C67.0561 6.50127 67.8774 7.08794 68.5387 7.85594C69.2214 8.6026 69.7441 9.51994 70.1068 10.6079C70.4694 11.6959 70.6507 12.9119 70.6507 14.2559C70.6507 15.5999 70.4694 16.8159 70.1068 17.9039C69.7441 18.9919 69.2214 19.9199 68.5387 20.6879C67.8774 21.4559 67.0561 22.0426 66.0748 22.4479C65.1148 22.8533 64.0161 23.0559 62.7788 23.0559ZM62.7788 19.3119C63.7174 19.3119 64.4427 19.0239 64.9548 18.4479C65.4668 17.8719 65.7227 17.0506 65.7227 15.9839V12.5599C65.7227 11.4933 65.4668 10.6719 64.9548 10.0959C64.4427 9.51994 63.7174 9.23194 62.7788 9.23194C61.8401 9.23194 61.1147 9.51994 60.6027 10.0959C60.0907 10.6719 59.8348 11.4933 59.8348 12.5599V15.9839C59.8348 17.0506 60.0907 17.8719 60.6027 18.4479C61.1147 19.0239 61.8401 19.3119 62.7788 19.3119Z" fill="white"/>
<path d="M74.0253 22.6719V5.87194H78.7613V9.51994H78.9212C79.0066 9.0506 79.1559 8.6026 79.3692 8.17594C79.5826 7.72794 79.8599 7.33327 80.2012 6.99194C80.5639 6.6506 80.9906 6.38394 81.4812 6.19194C81.9719 5.9786 82.5479 5.87194 83.2093 5.87194H84.0413V10.2879H82.8573C81.4706 10.2879 80.4359 10.4693 79.7533 10.8319C79.0919 11.1946 78.7613 11.8666 78.7613 12.8479V22.6719H74.0253Z" fill="white"/>
<path d="M92.6588 23.0559C91.0374 23.0559 89.6721 22.7999 88.5628 22.2879C87.4534 21.7546 86.4614 21.0079 85.5867 20.0479L88.3708 17.2319C88.9681 17.8933 89.6294 18.4159 90.3548 18.7999C91.0801 19.1839 91.9014 19.3759 92.8187 19.3759C93.7574 19.3759 94.4081 19.2373 94.7708 18.9599C95.1334 18.6613 95.3148 18.2666 95.3148 17.7759C95.3148 16.9866 94.7494 16.5173 93.6188 16.3679L91.7948 16.1439C88.0188 15.6746 86.1308 13.9466 86.1308 10.9599C86.1308 10.1493 86.2801 9.41327 86.5788 8.75194C86.8988 8.06927 87.3361 7.49327 87.8907 7.02394C88.4667 6.53327 89.1494 6.15994 89.9388 5.90394C90.7494 5.6266 91.6561 5.48794 92.6588 5.48794C93.5334 5.48794 94.3014 5.55194 94.9628 5.67994C95.6454 5.7866 96.2428 5.95727 96.7548 6.19194C97.2881 6.40527 97.7681 6.6826 98.1947 7.02394C98.6427 7.34394 99.0801 7.7066 99.5068 8.11194L96.7868 10.8959C96.2534 10.3626 95.6454 9.9466 94.9628 9.64794C94.3014 9.32794 93.6188 9.16794 92.9147 9.16794C92.1041 9.16794 91.5281 9.29594 91.1868 9.55194C90.8454 9.80794 90.6748 10.1493 90.6748 10.5759C90.6748 11.0239 90.7921 11.3759 91.0267 11.6319C91.2827 11.8666 91.7521 12.0373 92.4348 12.1439L94.3228 12.3999C98.0134 12.8906 99.8587 14.5759 99.8587 17.4559C99.8587 18.2666 99.6881 19.0133 99.3467 19.6959C99.0054 20.3786 98.5147 20.9759 97.8747 21.4879C97.2561 21.9786 96.4987 22.3626 95.6028 22.6399C94.7281 22.9173 93.7467 23.0559 92.6588 23.0559Z" fill="white"/>
<path d="M113.382 22.9119C112.369 22.9119 111.516 22.7519 110.822 22.4319C110.129 22.0986 109.509 21.6319 108.962 21.0319L110.702 19.2719C111.076 19.6853 111.489 20.0119 111.942 20.2519C112.396 20.4919 112.909 20.6119 113.482 20.6119C114.069 20.6119 114.476 20.5253 114.702 20.3519C114.929 20.1653 115.042 19.9186 115.042 19.6119C115.042 19.1186 114.689 18.8253 113.982 18.7319L112.842 18.5919C110.482 18.2986 109.302 17.2186 109.302 15.3519C109.302 14.8453 109.396 14.3853 109.582 13.9719C109.782 13.5453 110.056 13.1853 110.402 12.8919C110.762 12.5853 111.189 12.3519 111.682 12.1919C112.189 12.0186 112.756 11.9319 113.382 11.9319C113.929 11.9319 114.409 11.9719 114.822 12.0519C115.249 12.1186 115.622 12.2253 115.942 12.3719C116.276 12.5053 116.576 12.6786 116.842 12.8919C117.122 13.0919 117.396 13.3186 117.662 13.5719L115.962 15.3119C115.629 14.9786 115.249 14.7186 114.822 14.5319C114.409 14.3319 113.982 14.2319 113.542 14.2319C113.036 14.2319 112.676 14.3119 112.462 14.4719C112.249 14.6319 112.142 14.8453 112.142 15.1119C112.142 15.3919 112.216 15.6119 112.362 15.7719C112.522 15.9186 112.816 16.0253 113.242 16.0919L114.422 16.2519C116.729 16.5586 117.882 17.6119 117.882 19.4119C117.882 19.9186 117.776 20.3853 117.562 20.8119C117.349 21.2386 117.042 21.6119 116.642 21.9319C116.256 22.2386 115.782 22.4786 115.222 22.6519C114.676 22.8253 114.062 22.9119 113.382 22.9119Z" fill="white"/>
<path d="M119.9 7.87194H122.86V13.9519H122.98C123.167 13.4053 123.494 12.9319 123.96 12.5319C124.427 12.1319 125.074 11.9319 125.9 11.9319C126.98 11.9319 127.794 12.2919 128.34 13.0119C128.9 13.7319 129.18 14.7586 129.18 16.0919V22.6719H126.22V16.3319C126.22 15.6519 126.114 15.1519 125.9 14.8319C125.687 14.4986 125.307 14.3319 124.76 14.3319C124.52 14.3319 124.287 14.3653 124.06 14.4319C123.834 14.4853 123.627 14.5786 123.44 14.7119C123.267 14.8453 123.127 15.0119 123.02 15.2119C122.914 15.3986 122.86 15.6186 122.86 15.8719V22.6719H119.9V7.87194Z" fill="white"/>
<path d="M136.074 22.9119C135.301 22.9119 134.608 22.7853 133.994 22.5319C133.394 22.2786 132.881 21.9119 132.454 21.4319C132.041 20.9519 131.721 20.3719 131.494 19.6919C131.268 19.0119 131.154 18.2519 131.154 17.4119C131.154 16.5719 131.268 15.8119 131.494 15.1319C131.721 14.4519 132.041 13.8786 132.454 13.4119C132.881 12.9319 133.394 12.5653 133.994 12.3119C134.608 12.0586 135.301 11.9319 136.074 11.9319C136.848 11.9319 137.534 12.0586 138.134 12.3119C138.748 12.5653 139.261 12.9319 139.674 13.4119C140.101 13.8786 140.428 14.4519 140.654 15.1319C140.881 15.8119 140.994 16.5719 140.994 17.4119C140.994 18.2519 140.881 19.0119 140.654 19.6919C140.428 20.3719 140.101 20.9519 139.674 21.4319C139.261 21.9119 138.748 22.2786 138.134 22.5319C137.534 22.7853 136.848 22.9119 136.074 22.9119ZM136.074 20.5719C136.661 20.5719 137.114 20.3919 137.434 20.0319C137.754 19.6719 137.914 19.1586 137.914 18.4919V16.3519C137.914 15.6853 137.754 15.1719 137.434 14.8119C137.114 14.4519 136.661 14.2719 136.074 14.2719C135.488 14.2719 135.034 14.4519 134.714 14.8119C134.394 15.1719 134.234 15.6853 134.234 16.3519V18.4919C134.234 19.1586 134.394 19.6719 134.714 20.0319C135.034 20.3919 135.488 20.5719 136.074 20.5719Z" fill="white"/>
<path d="M143.104 12.1719H146.064V13.9319H146.163C146.31 13.3453 146.643 12.8653 147.163 12.4919C147.697 12.1186 148.304 11.9319 148.984 11.9319C150.317 11.9319 151.324 12.3986 152.003 13.3319C152.683 14.2653 153.023 15.6253 153.023 17.4119C153.023 19.1986 152.683 20.5653 152.003 21.5119C151.324 22.4453 150.317 22.9119 148.984 22.9119C148.637 22.9119 148.31 22.8586 148.003 22.7519C147.697 22.6586 147.417 22.5253 147.163 22.3519C146.923 22.1653 146.717 21.9519 146.544 21.7119C146.37 21.4586 146.243 21.1919 146.163 20.9119H146.064V26.6719H143.104V12.1719ZM148.003 20.5119C148.563 20.5119 149.023 20.3186 149.383 19.9319C149.757 19.5319 149.943 18.9986 149.943 18.3319V16.5119C149.943 15.8453 149.757 15.3186 149.383 14.9319C149.023 14.5319 148.563 14.3319 148.003 14.3319C147.443 14.3319 146.977 14.4719 146.604 14.7519C146.243 15.0186 146.064 15.3919 146.064 15.8719V18.9719C146.064 19.4519 146.243 19.8319 146.604 20.1119C146.977 20.3786 147.443 20.5119 148.003 20.5119Z" fill="white"/>
</svg>
